<?xml version="1.0" standalone="no"?>
<!DOCTYPE svg PUBLIC "-//W3C//DTD SVG 20010904//EN"
 "http://www.w3.org/TR/2001/REC-SVG-20010904/DTD/svg10.dtd">
<svg version="1.0" xmlns="http://www.w3.org/2000/svg"
 width="600.000000pt" height="600.000000pt" viewBox="0 0 600.000000 600.000000"
 preserveAspectRatio="xMidYMid meet">

<g transform="translate(0.000000,600.000000) scale(0.100000,-0.100000)"
fill="#000000" stroke="none">
<path d="M0 3000 l0 -3000 3000 0 3000 0 0 3000 0 3000 -3000 0 -3000 0 0
-3000z m3062 2691 c23 -25 28 -41 28 -82 0 -44 2 -49 18 -40 37 20 128 30 171
19 56 -14 81 -48 81 -109 0 -59 -15 -93 -47 -108 -34 -16 -50 -14 -116 13 -32
13 -56 21 -55 18 41 -76 53 -165 29 -211 -16 -29 -69 -61 -101 -61 -76 0 -118
77 -106 191 5 55 4 60 -12 54 -60 -23 -147 -24 -203 -1 -26 11 -52 67 -53 114
-1 35 4 48 24 64 21 17 35 19 90 15 36 -3 76 -9 89 -13 22 -6 22 -5 11 16 -53
98 -18 166 80 156 34 -3 51 -11 72 -35z m-648 -191 c16 -15 -5 -30 -42 -30
-101 0 -444 -198 -622 -358 l-55 -49 34 -38 c42 -48 72 -118 74 -171 2 -47
-13 -70 -52 -79 -99 -21 -154 105 -97 221 l25 49 -70 -75 c-39 -41 -103 -120
-141 -175 -84 -118 -192 -310 -185 -329 3 -7 -1 -36 -9 -65 -22 -86 7 -173 63
-187 82 -21 79 91 -6 188 -49 56 -39 94 11 41 42 -45 70 -113 76 -179 4 -58 3
-63 -21 -79 -35 -22 -79 -12 -111 26 -26 31 -51 127 -42 161 10 41 -11 2 -32
-57 -69 -194 -102 -376 -104 -569 -1 -95 2 -128 15 -153 30 -57 47 -153 38
-212 -10 -61 -20 -71 -78 -71 -52 0 -83 34 -83 89 0 40 40 134 72 168 18 20
20 33 19 155 -1 74 3 176 10 228 17 134 17 132 -12 149 -24 13 -31 13 -70 -2
-52 -20 -111 -73 -107 -94 2 -9 11 -21 21 -27 26 -16 105 29 137 78 22 35 25
37 28 17 9 -58 -102 -150 -162 -135 -30 7 -56 39 -56 69 0 77 145 166 223 136
15 -6 27 -9 27 -7 0 18 68 223 99 300 107 262 317 557 521 734 203 174 539
360 625 345 17 -3 34 -9 39 -13z m1444 -53 c401 -205 693 -501 887 -902 63
-130 124 -295 145 -390 21 -101 19 -96 40 -85 48 25 136 -5 190 -66 54 -62 34
-144 -36 -144 -28 0 -101 50 -125 86 -10 16 -19 40 -19 54 0 25 0 25 19 -5 50
-83 147 -122 168 -69 9 24 -64 89 -116 105 -31 9 -47 9 -66 1 -24 -11 -25 -14
-18 -69 5 -32 8 -147 7 -255 0 -109 3 -198 6 -198 12 0 67 -113 74 -151 7 -43
-9 -96 -34 -109 -33 -18 -88 -12 -110 12 -36 39 -20 175 32 269 19 34 20 50
16 225 -6 203 -32 362 -82 495 l-23 62 -8 -49 c-9 -66 -39 -120 -75 -139 -41
-21 -57 -19 -87 11 -22 22 -25 31 -19 71 3 25 15 66 26 91 20 45 75 112 92
112 12 0 10 -38 -3 -46 -6 -3 -29 -34 -50 -67 -62 -96 -50 -166 23 -138 61 23
91 113 64 192 -10 27 -11 46 -5 49 12 8 -81 198 -146 300 -52 81 -193 268
-219 289 -11 9 -16 10 -16 2 0 -6 4 -11 9 -11 14 0 41 -76 41 -115 0 -45 -27
-113 -51 -125 -10 -6 -33 -10 -53 -10 -41 0 -76 37 -76 79 0 38 42 123 84 169
l36 40 -70 65 c-88 84 -189 159 -310 233 -106 64 -218 119 -226 111 -3 -3 3
-22 14 -44 26 -51 52 -139 52 -178 0 -51 -24 -75 -76 -75 -56 0 -79 12 -100
52 -31 59 8 199 64 236 17 11 20 17 10 23 -7 5 -22 6 -34 3 -22 -6 -40 18 -28
38 13 21 108 2 182 -35z m-2025 -31 c100 -23 124 -69 59 -113 -69 -46 -187
-39 -210 12 -17 37 -15 69 6 87 35 31 62 34 145 14z m2555 -52 c30 -21 30 -79
0 -111 -17 -18 -32 -23 -75 -23 -92 0 -153 36 -153 89 0 49 173 84 228 45z
m-2988 -518 c0 -9 -16 -17 -42 -21 -60 -10 -157 -54 -170 -78 -8 -16 -7 -23 8
-34 10 -7 22 -13 26 -13 19 0 73 34 114 72 24 22 44 38 44 34 0 -30 -62 -102
-107 -125 -86 -44 -154 46 -85 113 55 52 212 90 212 52z m3406 -71 c95 -46
127 -114 74 -157 -42 -34 -109 -7 -161 66 -38 51 -39 83 -1 39 60 -72 125
-101 152 -68 11 13 9 20 -10 39 -25 28 -97 61 -152 71 -36 7 -48 22 -31 39 12
11 73 -3 129 -29z m-2223 -402 c31 -32 70 -77 86 -99 l29 -41 84 -5 c91 -5
161 -30 242 -88 l44 -32 44 34 c73 56 142 81 239 86 83 4 87 5 104 34 26 45
145 168 162 168 12 0 14 -8 10 -37 -3 -21 -11 -79 -18 -130 l-13 -92 60 -63
c70 -73 102 -133 117 -222 27 -156 -46 -310 -191 -403 -69 -44 -131 -63 -213
-63 -75 0 -167 24 -176 46 -11 30 12 34 67 13 67 -25 194 -28 259 -4 62 22
142 85 179 140 48 72 65 134 61 223 -5 95 -39 171 -108 240 -160 160 -419 136
-556 -50 l-27 -38 -27 38 c-76 103 -175 154 -301 154 -269 0 -438 -268 -330
-521 25 -56 106 -138 170 -171 79 -40 219 -43 304 -6 43 18 66 15 66 -8 0 -23
-79 -49 -166 -54 -95 -5 -159 12 -239 63 -227 144 -255 455 -59 634 l53 48
-14 89 c-26 174 -26 174 -12 174 8 0 39 -26 70 -57z m-645 -84 c214 -73 349
-297 312 -516 -17 -103 -59 -184 -134 -259 -235 -235 -620 -168 -763 132 -37
78 -38 81 -38 199 0 117 1 122 36 195 44 91 90 146 164 194 124 83 283 104
423 55z m2512 -36 c83 -41 172 -129 211 -209 134 -272 -31 -606 -324 -657
-292 -50 -554 216 -507 515 18 121 58 196 147 279 92 87 158 110 303 106 96
-2 112 -5 170 -34z m-960 -139 c76 -23 171 -118 194 -194 61 -204 -66 -395
-270 -408 -97 -6 -158 15 -228 79 -68 62 -98 127 -99 218 -3 223 190 368 403
305z m-610 -30 c59 -32 121 -103 141 -161 21 -61 17 -170 -9 -223 -53 -109
-138 -170 -252 -178 -98 -7 -160 17 -231 87 -71 72 -94 132 -87 235 6 85 29
134 90 194 63 61 124 83 218 79 61 -3 86 -9 130 -33z m872 -620 c11 -61 10
-244 -1 -297 -17 -74 -45 -139 -85 -200 l-37 -55 -539 0 -538 0 -30 42 c-80
113 -118 266 -105 424 7 91 15 103 45 76 67 -61 190 -104 297 -104 73 0 185
23 209 42 16 13 13 17 56 -69 20 -40 40 -73 44 -73 5 0 24 33 43 73 19 39 39
71 44 70 6 -1 30 -10 55 -19 25 -9 86 -19 137 -22 139 -7 260 37 348 125 17
17 34 29 40 28 5 -1 13 -19 17 -41z m-927 -612 c13 -28 38 -28 50 1 15 33 62
35 91 3 21 -22 24 -35 24 -104 0 -74 -2 -81 -26 -96 -34 -23 -76 -17 -89 12
-13 29 -39 28 -53 -3 -10 -22 -18 -26 -54 -24 -24 2 -46 7 -50 13 -12 17 -9
135 4 178 18 60 79 71 103 20z m430 -4 c9 -26 30 -22 43 7 18 39 66 37 99 -3
19 -22 23 -39 23 -94 0 -70 -7 -101 -20 -93 -4 3 -13 -2 -20 -10 -19 -23 -56
-18 -78 10 -25 31 -29 31 -54 0 -16 -21 -28 -25 -60 -23 -32 2 -42 7 -49 26
-12 31 -12 142 0 142 5 0 11 12 13 27 6 53 87 62 103 11z m-96 -233 c33 -11
51 -12 84 -4 55 14 97 0 97 -34 0 -46 49 -122 120 -185 89 -80 91 -97 11 -72
-32 11 -86 22 -119 26 -54 6 -66 3 -139 -30 -104 -47 -142 -47 -245 0 -74 33
-84 35 -141 29 -34 -4 -88 -15 -119 -25 -78 -24 -76 -8 8 67 77 68 111 122
120 186 7 50 16 55 57 36 18 -8 34 -7 68 5 56 19 145 20 198 1z m-1561 -107
c21 -21 14 -127 -13 -193 -32 -77 -34 -204 -5 -364 22 -119 77 -303 79 -261 2
43 22 101 42 121 21 21 83 26 95 7 15 -24 5 -96 -19 -145 -29 -57 -51 -78 -72
-69 -22 8 -19 -7 15 -75 67 -132 166 -274 249 -359 19 -19 26 -24 15 -11 -14
17 -19 39 -19 86 0 76 20 105 71 105 40 0 64 -22 64 -59 0 -30 -40 -114 -71
-147 -19 -20 -18 -20 24 -60 23 -23 69 -61 102 -86 91 -69 335 -204 335 -186
0 2 -11 30 -25 63 -31 75 -34 150 -6 165 32 17 68 12 97 -14 24 -20 28 -31 27
-73 -1 -53 -20 -100 -55 -133 -22 -20 -17 -25 25 -21 22 3 23 -27 0 -36 -30
-12 -107 17 -223 83 -151 87 -238 154 -353 273 -176 184 -320 439 -382 677
l-18 71 -42 -5 c-50 -5 -91 14 -129 58 -33 40 -34 75 -2 95 32 21 68 11 112
-30 24 -23 34 -41 33 -61 0 -16 -3 -22 -6 -14 -9 25 -54 68 -85 81 -24 10 -32
9 -45 -3 -12 -13 -13 -19 -2 -36 17 -27 80 -62 112 -62 38 0 46 18 36 85 -5
33 -8 119 -7 191 2 126 1 131 -24 165 -69 92 -56 189 26 189 17 0 37 -5 44
-12z m3038 -13 c23 -35 14 -100 -22 -155 -27 -44 -28 -49 -31 -205 -2 -88 -4
-178 -6 -200 -2 -37 0 -40 25 -43 46 -5 128 45 128 78 0 47 -87 20 -127 -40
-19 -27 -23 -30 -23 -12 0 26 43 78 82 98 88 46 124 -60 41 -123 -29 -23 -47
-28 -90 -28 l-54 0 -10 -40 c-99 -385 -342 -727 -664 -933 -116 -74 -245 -133
-285 -130 -23 2 -35 8 -35 18 0 9 12 15 35 17 40 3 214 89 318 158 39 25 101
74 138 109 l68 62 -33 41 c-18 22 -39 62 -47 88 -12 43 -12 51 1 72 17 25 61
31 95 13 41 -22 48 -111 14 -170 -8 -14 10 2 41 35 108 115 242 339 252 422
13 110 1 158 -42 169 -80 20 -72 -52 20 -172 16 -22 -4 -28 -26 -8 -31 27 -69
113 -69 155 0 41 15 59 48 59 54 0 83 -35 92 -115 l6 -50 31 95 c43 131 63
254 63 391 0 97 -4 125 -21 164 -30 69 -37 159 -14 185 27 30 80 27 101 -5z
m-2220 -310 c75 -37 148 -110 182 -183 24 -50 27 -69 27 -162 0 -93 -3 -112
-27 -162 -34 -74 -112 -152 -186 -186 -50 -24 -69 -27 -157 -27 -87 0 -107 3
-155 26 -158 75 -246 240 -219 410 22 139 118 253 252 301 80 28 205 21 283
-17z m807 -3 c112 -55 188 -158 208 -281 26 -167 -57 -328 -209 -403 -62 -31
-74 -33 -167 -33 -90 0 -106 3 -158 28 -74 37 -147 110 -184 184 -25 53 -28
68 -28 163 0 94 3 111 28 161 47 98 151 185 251 210 17 4 68 7 113 5 68 -2 92
-8 146 -34z m764 18 c108 -38 200 -132 233 -239 52 -166 -1 -327 -142 -433
-146 -110 -367 -85 -497 57 -68 76 -95 146 -95 255 0 106 25 174 90 248 104
119 266 163 411 112z m-2303 -769 c33 -20 76 -72 76 -91 0 -6 -16 6 -36 25
-40 40 -76 58 -99 49 -51 -20 49 -94 126 -94 19 0 29 -5 29 -15 0 -38 -155 9
-179 54 -17 31 -13 58 11 75 29 20 34 20 72 -3z m2838 7 c9 -7 19 -23 22 -34
14 -47 -90 -121 -158 -112 -40 5 -33 22 12 30 50 8 118 42 125 62 4 10 -2 20
-13 26 -25 13 -51 1 -102 -48 -48 -46 -49 -29 -1 27 48 57 85 72 115 49z
m-1422 -408 c25 -25 33 -57 28 -120 -3 -47 -1 -51 17 -45 11 4 45 9 75 12 46
4 59 1 82 -17 29 -22 47 -70 40 -106 -7 -39 -71 -54 -140 -34 -30 8 -33 7 -27
-8 19 -47 24 -76 14 -94 -22 -41 -101 -45 -136 -6 -10 11 -17 36 -18 59 0 35
-2 39 -20 33 -11 -3 -47 -8 -80 -11 -51 -4 -64 -2 -87 17 -24 18 -28 29 -28
71 0 66 26 94 78 84 21 -3 50 -13 65 -20 26 -13 28 -13 22 3 -41 96 -40 148 2
182 33 26 87 26 113 0z m-961 -86 c68 -27 64 -74 -8 -94 -88 -24 -141 -8 -141
45 0 61 66 83 149 49z m1991 -4 c24 -24 26 -63 4 -84 -19 -19 -93 -20 -144 -3
-30 10 -35 17 -35 42 0 24 7 33 35 47 48 25 115 23 140 -2z"/>
<path d="M2938 5683 c-30 -8 -31 -41 -4 -87 34 -58 50 -71 66 -51 7 8 20 15
29 15 25 0 41 20 41 51 0 54 -65 90 -132 72z"/>
<path d="M3150 5537 c-25 -7 -44 -15 -42 -19 1 -5 2 -17 2 -27 0 -29 114 -83
166 -79 73 6 87 90 20 122 -39 18 -82 19 -146 3z"/>
<path d="M2750 5521 c-19 -5 -26 -14 -28 -39 -5 -45 31 -78 95 -87 58 -8 142
10 125 27 -6 6 -8 25 -5 42 5 31 4 32 -44 43 -73 18 -115 22 -143 14z"/>
<path d="M3005 5378 c-49 -118 -9 -220 78 -204 50 9 77 39 77 87 0 81 -48 149
-106 149 -30 0 -37 -5 -49 -32z"/>
<path d="M1675 4986 c-57 -87 -1 -205 81 -167 33 15 31 53 -5 116 -42 73 -56
82 -76 51z"/>
<path d="M1073 3516 c-48 -71 -58 -111 -39 -141 28 -42 100 -35 109 11 5 29
-7 99 -25 144 l-14 33 -31 -47z"/>
<path d="M3733 5368 c-82 -90 -67 -198 27 -198 59 0 69 27 42 117 -12 37 -27
76 -34 86 -13 17 -15 17 -35 -5z"/>
<path d="M4341 4921 c-71 -89 -73 -151 -7 -151 44 0 75 27 82 70 6 38 -14 111
-32 117 -7 2 -26 -14 -43 -36z"/>
<path d="M4891 3434 c-37 -97 -25 -154 33 -154 40 0 66 26 66 66 0 27 -49 126
-68 138 -5 3 -19 -19 -31 -50z"/>
<path d="M1723 5380 c-39 -16 -29 -48 18 -60 60 -16 169 5 154 30 -13 21 -141
43 -172 30z"/>
<path d="M4236 5327 c-53 -16 -56 -33 -9 -46 81 -23 163 -8 163 30 0 27 -87
36 -154 16z"/>
<path d="M1690 4256 c-127 -27 -237 -115 -293 -233 -30 -64 -32 -75 -32 -178
0 -104 2 -114 32 -176 132 -267 482 -325 688 -115 65 68 102 140 114 229 31
222 -109 426 -325 472 -81 17 -110 17 -184 1z m252 -64 c195 -91 278 -320 186
-511 -29 -61 -121 -151 -182 -180 -103 -48 -229 -48 -332 0 -66 31 -149 116
-182 186 -24 52 -27 70 -27 163 0 125 17 171 91 251 89 95 179 132 306 125 60
-3 93 -11 140 -34z"/>
<path d="M1640 3844 l0 -195 33 3 32 3 5 144 5 145 28 -42 c15 -23 35 -42 45
-42 9 0 28 18 42 40 14 22 28 40 32 40 5 0 8 -66 8 -146 l0 -145 33 3 32 3 3
193 2 192 -38 0 c-30 0 -45 -7 -72 -35 -19 -19 -39 -35 -45 -35 -6 0 -26 16
-45 35 -25 26 -42 35 -67 35 l-33 0 0 -196z"/>
<path d="M4180 4236 c-77 -17 -135 -50 -191 -107 -197 -202 -136 -542 118
-662 61 -29 77 -32 158 -32 80 0 97 3 157 32 88 41 160 113 201 201 30 62 32
75 32 172 0 97 -2 110 -32 172 -57 121 -163 204 -288 227 -70 13 -84 13 -155
-3z m232 -58 c72 -33 142 -103 176 -176 38 -81 43 -212 12 -295 -29 -76 -112
-167 -188 -204 -50 -24 -69 -28 -147 -28 -78 0 -97 4 -146 28 -68 33 -152 119
-181 184 -29 65 -36 191 -14 264 19 68 81 156 136 194 102 71 240 84 352 33z"/>
<path d="M4170 3841 l0 -191 30 0 30 0 0 90 c0 50 4 90 8 90 5 0 24 -39 43
-87 30 -79 37 -88 62 -91 l27 -3 0 191 0 191 -27 -3 -28 -3 -5 -100 -5 -100
-41 100 c-36 89 -43 100 -67 103 l-27 3 0 -190z"/>
<path d="M3318 4087 c-84 -24 -166 -107 -189 -191 -6 -23 -9 -68 -6 -101 13
-172 178 -288 340 -241 205 60 271 313 121 461 -71 69 -174 97 -266 72z m177
-36 c51 -23 121 -102 135 -150 27 -99 5 -187 -65 -256 -81 -82 -187 -99 -286
-47 -180 94 -182 346 -4 444 62 34 157 38 220 9z"/>
<path d="M3330 3931 c-12 -24 -13 -200 -1 -220 11 -18 93 -26 120 -12 19 11
21 19 21 119 0 71 -4 112 -12 120 -7 7 -36 12 -65 12 -41 0 -54 -4 -63 -19z
m100 -111 l0 -100 -30 0 -30 0 0 100 0 100 30 0 30 0 0 -100z"/>
<path d="M2648 4074 c-70 -21 -143 -98 -164 -171 -77 -265 222 -457 434 -278
113 95 109 298 -9 398 -72 62 -166 80 -261 51z m156 -18 c128 -39 202 -173
166 -301 -16 -56 -81 -132 -135 -156 -56 -26 -147 -25 -202 2 -89 43 -153 159
-138 252 16 95 83 176 169 203 54 17 83 17 140 0z"/>
<path d="M2683 3943 c-9 -3 -13 -37 -13 -118 0 -125 0 -125 70 -125 70 0 70 0
70 125 0 94 -3 114 -16 119 -18 7 -93 7 -111 -1z m87 -118 l0 -95 -30 0 -30 0
0 95 0 95 30 0 30 0 0 -95z"/>
<path d="M1515 2474 c-22 -22 -14 -65 22 -117 30 -43 33 -41 54 41 9 38 10 58
3 70 -15 23 -58 27 -79 6z"/>
<path d="M1705 1775 c-19 -19 -25 -35 -25 -70 0 -58 15 -91 33 -73 46 48 81
125 70 154 -8 22 -51 17 -78 -11z"/>
<path d="M1996 1305 c-20 -20 -21 -94 -2 -120 14 -19 15 -19 35 5 29 35 53 88
49 108 -4 23 -60 28 -82 7z"/>
<path d="M2473 1013 c-20 -7 -15 -75 8 -127 17 -40 23 -45 35 -35 19 15 39 54
48 92 11 46 -45 89 -91 70z"/>
<path d="M4552 2478 c-7 -7 -12 -25 -12 -41 0 -37 20 -107 31 -107 11 0 34 36
54 82 14 36 14 39 -5 58 -23 23 -50 26 -68 8z"/>
<path d="M4061 1303 c-11 -21 1 -55 36 -101 22 -29 27 -32 40 -20 23 24 28 84
9 113 -20 30 -70 35 -85 8z"/>
<path d="M2153 2166 c-234 -76 -312 -377 -145 -555 69 -73 145 -106 247 -106
71 0 89 4 147 33 73 36 124 87 160 161 33 67 33 216 0 283 -35 70 -96 134
-158 164 -67 33 -183 42 -251 20z m246 -51 c175 -96 215 -331 81 -478 -68 -74
-131 -102 -230 -101 -91 1 -134 19 -203 82 -70 65 -97 127 -97 222 0 140 75
247 209 297 61 23 177 12 240 -22z"/>
<path d="M2181 1986 c-8 -9 -11 -59 -9 -152 l3 -139 79 -3 c57 -2 82 1 87 10
5 7 9 72 9 145 0 121 -2 133 -19 143 -29 15 -136 13 -150 -4z m119 -146 l0
-120 -40 0 -40 0 0 120 0 120 40 0 40 0 0 -120z"/>
<path d="M2954 2166 c-60 -19 -130 -71 -169 -124 -126 -174 -62 -419 134 -511
77 -36 202 -37 273 -3 66 33 129 91 163 153 28 50 30 61 30 159 0 94 -3 110
-27 155 -32 62 -104 130 -166 158 -58 25 -180 33 -238 13z m236 -45 c64 -33
135 -111 156 -173 22 -67 16 -187 -13 -243 -30 -57 -91 -118 -149 -145 -69
-34 -178 -34 -252 -1 -108 48 -182 165 -182 287 0 119 82 240 192 283 71 28
183 24 248 -8z"/>
<path d="M2925 1988 c2 -7 16 -77 31 -155 l26 -143 28 0 c28 0 29 2 35 65 4
36 11 67 15 70 5 3 14 -27 20 -66 12 -67 13 -70 38 -67 26 3 27 7 54 143 33
173 33 167 6 163 -21 -3 -24 -12 -37 -95 -7 -51 -17 -91 -21 -88 -4 2 -13 45
-20 95 -12 83 -15 90 -36 90 -25 0 -29 -11 -40 -122 -7 -74 -18 -81 -28 -18
-19 119 -27 140 -52 140 -14 0 -22 -5 -19 -12z"/>
<path d="M3735 2156 c-79 -33 -165 -122 -191 -198 -27 -80 -24 -180 8 -250 35
-75 98 -141 167 -175 48 -24 68 -28 141 -28 103 0 170 27 239 96 68 68 95 136
96 239 0 77 -3 92 -33 152 -58 118 -153 180 -287 185 -68 3 -89 0 -140 -21z
m238 -26 c64 -24 136 -92 168 -159 32 -64 33 -187 3 -252 -125 -270 -506 -236
-580 51 -61 238 176 447 409 360z"/>
<path d="M3790 1845 l0 -155 90 0 c73 0 90 3 90 15 0 12 -13 15 -60 15 l-60 0
0 140 0 140 -30 0 -30 0 0 -155z"/>
<path d="M2990 993 c-27 -34 -20 -82 17 -131 19 -26 31 -32 47 -28 11 3 24 6
27 6 13 0 29 53 29 93 0 58 -22 87 -65 87 -25 0 -39 -7 -55 -27z"/>
<path d="M3162 841 c-8 -5 -12 -22 -10 -42 3 -33 5 -34 62 -46 58 -11 97 -6
110 16 10 16 -14 58 -41 70 -28 13 -102 14 -121 2z"/>
<path d="M2839 804 c-20 -54 38 -94 114 -79 59 12 67 16 67 36 0 24 -86 69
-135 69 -29 0 -37 -5 -46 -26z"/>
<path d="M3083 718 c-58 -35 -33 -98 39 -98 48 0 61 17 41 57 -8 17 -22 38
-31 46 -15 12 -21 12 -49 -5z"/>
<path d="M2019 911 l-24 -19 29 -12 c35 -13 139 5 133 23 -9 29 -106 34 -138
8z"/>
<path d="M4000 918 c-32 -9 -33 -11 -17 -23 41 -30 147 -26 147 5 0 27 -66 37
-130 18z"/>
</g>
</svg>
